<!--?xml version="1.0" encoding="utf-8"?-->
<!-- Generator: Adobe Illustrator 18.1.1, SVG Export Plug-In . SVG Version: 6.00 Build 0)  -->

<svg version="1.1" id="_x31_0" xmlns="http://www.w3.org/2000/svg" xmlns:xlink="http://www.w3.org/1999/xlink" x="0px" y="0px" viewBox="0 0 512 512" style="width: 128px; height: 128px; opacity: 1;" xml:space="preserve">
<style type="text/css">
	.st0{fill:rgb(255, 192, 66);}
</style>
<g>
	<path class="st0" d="M256,0C114.614,0,0,114.614,0,256c0,141.383,114.614,256,256,256c141.383,0,256-114.617,256-256
		C512,114.614,397.383,0,256,0z M385.718,224.848c0.762,0.598,1.926,1.531,3.375,2.867c2.734,2.527,6.848,6.602,11.031,12.82
		c2.18,3.18,4.219,6.875,6.043,10.949c0.882,1.934,1.703,4.039,2.442,6.27l0.57-0.003l0.538,4.042l1.016,3.641
		c0.61,2.691,1.106,6.082,1.336,9.019l0.281,4.294c0.043,1.23,0.028,2.304,0.012,3.398l-0.015,1.305
		c-0.211,6.824-1.242,13.453-3.066,19.804c-1.778,6.332-4.555,13.012-8.234,19.821c-3.215,5.91-7.364,11.785-13.055,18.5
		c-9.531,11.16-21.906,21.148-36.785,29.695c-14.102,7.938-29.489,13.953-45.758,17.886c-7.356,1.848-15.387,3.282-24.516,4.394
		c-4.578,0.485-8.543,0.91-12.523,1.078c-2.024,0.129-4.133,0.242-6.246,0.262l-6.578,0.133l-8.441-0.199l-3.325-0.183
		c-4.312-0.172-8.406-0.61-12.457-1.047c-9.281-1.11-17.309-2.543-24.813-4.406c-16.179-3.902-31.566-9.914-45.706-17.855
		c-14.914-8.554-27.294-18.539-36.836-29.711c-5.562-6.55-9.828-12.594-13.062-18.492c-3.664-6.785-6.442-13.461-8.254-19.875
		c-3.496-12.304-4.027-25.57-1.5-37.355l1.562-6.324l0.074-0.074l0.375-1.133c0.785-2.481,1.687-4.879,2.672-6.984
		c1.812-4.032,3.859-7.723,6.062-10.914c4.203-6.211,8.313-10.262,11.039-12.77c1.453-1.32,2.613-2.258,3.402-2.879l14.914-11.988
		l-6.71,16.485c-0.02,0.054-0.711,1.766-1.829,4.878c-1.129,3.266-2.582,7.786-3.598,13.446c-0.59,3.546-0.89,6.402-0.969,9.203
		c-0.062,1.734-0.007,3.363,0.059,5.042l0.011,0.199l0.141,0.145l-0.039,1.664l0.418,3.465c1.113,7.66,3.801,14.981,7.976,21.657
		c4.606,7.414,10.898,14.16,18.73,20.066c7.703,5.934,17.199,11.234,28.246,15.777c10.664,4.262,22.293,7.539,34.527,9.726
		c6.141,1.168,12.352,1.829,18.711,2.454c3.094,0.242,6.266,0.461,9.183,0.57l2.356,0.125l8.004,0.121l4.343-0.062
		c1.707,0,3.199-0.074,4.695-0.156c3.274-0.125,6.442-0.328,9.602-0.582c5.981-0.582,12.406-1.254,18.594-2.414
		c12.179-2.16,23.816-5.434,34.633-9.734c10.992-4.516,20.496-9.813,28.199-15.738c7.863-5.942,14.164-12.699,18.758-20.106
		c2.43-3.683,4.008-7.59,5.297-10.965c0,0,0.738-2.078,0.91-2.641l0.754-2.843c0.187-0.641,0.27-1.098,0.352-1.547
		c0,0,0.351-1.738,0.468-2.207c0.074-0.277,0.165-0.558,0.188-0.942l0.386-4.293l-0.042-1.347l0.034-0.36l0.176-0.199
		c0.051-1.578,0.086-3.242,0.039-4.855c-0.11-3.687-0.614-7.074-0.984-9.297c-1.031-5.726-2.551-10.398-3.606-13.41
		c-1.082-3.042-1.79-4.758-1.813-4.816l-3.629-8.793l-2.934-7.462L385.718,224.848z M267.355,125.176
		c-9.042,24.882-9.57,40.976-1.637,50.625l3.317,3.988c3.09,3.688,6.457,7.711,9.625,11.969c3.801,4.375,8.477,11.11,9.07,22.137
		c0.73,13.379-9.914,31.278-31.625,53.207c-1.34,1.348-3.07,2.066-4.996,2.066c-2.356,0-4.598-1.118-5.848-2.918
		c-1.086-1.598-1.301-3.45-0.641-5.25c9.062-24.902,9.59-41.008,1.653-50.66l-3.29-3.95c-3.179-3.793-6.523-7.789-9.652-12.007
		c-3.793-4.352-8.473-11.082-9.074-22.13c-0.726-13.363,9.91-31.266,31.629-53.206c1.286-1.325,3.07-2.07,4.989-2.07
		c2.359,0,4.598,1.121,5.851,2.922C267.82,121.535,268.027,123.386,267.355,125.176z M192.133,164.93
		c-7.465,20.508-7.946,33.699-1.527,41.512l2.738,3.289c2.598,3.098,5.422,6.465,8.074,10.027c3.207,3.703,7.196,9.458,7.711,18.875
		c0.622,11.359-8.324,26.473-26.578,44.918c-1.266,1.266-2.93,1.954-4.706,1.954c-2.211,0-4.325-1.062-5.512-2.774l-1.359-1.957
		l0.738-3.102c7.449-20.489,7.93-33.672,1.504-41.473l-2.758-3.316c-2.703-3.234-5.457-6.532-8.046-10.004
		c-3.207-3.699-7.199-9.45-7.711-18.875c-0.621-11.355,8.32-26.473,26.574-44.914c1.266-1.266,2.93-1.953,4.707-1.953
		c2.195,0,4.301,1.05,5.492,2.746l1.378,1.957L192.133,164.93z M340.324,164.969c-7.445,20.473-7.926,33.66-1.507,41.473
		l2.738,3.289c2.531,3.008,5.387,6.418,8.074,10.027c3.207,3.699,7.195,9.446,7.707,18.867c0.621,11.367-8.324,26.485-26.574,44.926
		c-1.262,1.266-2.934,1.954-4.711,1.954c-2.179,0-4.277-1.047-5.476-2.722l-1.406-1.973l0.754-3.137
		c7.446-20.485,7.926-33.664,1.504-41.477l-2.774-3.332c-2.843-3.398-5.523-6.61-8.038-9.996c-3.199-3.687-7.196-9.438-7.707-18.867
		c-0.618-11.359,8.324-26.473,26.574-44.91c1.266-1.266,2.93-1.953,4.706-1.953c2.199,0,4.305,1.05,5.5,2.746l1.395,1.98
		L340.324,164.969z" style="fill: rgb(255, 192, 66);"></path>
</g>
</svg>
