<?xml version="1.0" encoding="iso-8859-1"?>
<!-- Generator: Adobe Illustrator 19.0.0, SVG Export Plug-In . SVG Version: 6.00 Build 0)  -->
<svg version="1.1" id="Capa_1" xmlns="http://www.w3.org/2000/svg" xmlns:xlink="http://www.w3.org/1999/xlink" x="0px" y="0px"
	 viewBox="0 0 227 227" style="fill: #ffc042; enable-background:new 0 0 227 227;" xml:space="preserve">
<path d="M211.263,76.362H189V58.05c4-2.245,6.997-5.688,9.148-8.688h8.832c8.31,0,15.07-6.046,15.07-13.5s-6.761-13.5-15.07-13.5
	h-9.558c-4.617-7-12.582-11.724-21.622-11.724s-17.006,4.724-21.622,11.724H72.489c-4.617-7-12.582-11.724-21.622-11.724
	s-17.006,4.724-21.622,11.724h-9.557c-8.31,0-15.07,6.046-15.07,13.5s6.761,13.5,15.07,13.5h8.831c2.151,3,4.482,6.443,8.482,8.688
	v18.312H16.404C7.528,76.362,0,83.557,0,92.432v107.859c0,8.875,7.528,16.07,16.404,16.07h194.859
	c8.875,0,15.737-7.195,15.737-16.07V92.432C227,83.557,220.138,76.362,211.263,76.362z M64,58.05c4-2.245,7.064-5.688,9.214-8.688
	h80.237c2.151,3,4.548,6.443,8.548,8.688v18.312H64V58.05z M70,177.362H57.209L33,136.702v40.66H19v-63h13.666L57,155.88v-41.518h13
	V177.362z M125,177.362H82v-63h43v11H95v15h26v10H95v17h30V177.362z M192.767,177.362h-12.42l-11.014-39.641l-11.014,39.641H145.9
	l-14.751-63h13.363l8.585,40.953l11.203-40.953h10.025l11.29,40.975l8.54-40.975h13.32L192.767,177.362z"/>
<g>
</g>
<g>
</g>
<g>
</g>
<g>
</g>
<g>
</g>
<g>
</g>
<g>
</g>
<g>
</g>
<g>
</g>
<g>
</g>
<g>
</g>
<g>
</g>
<g>
</g>
<g>
</g>
<g>
</g>
</svg>
