<?xml version="1.0" encoding="utf-8"?>
<!-- Generator: Adobe Illustrator 18.1.1, SVG Export Plug-In . SVG Version: 6.00 Build 0)  -->
<!DOCTYPE svg PUBLIC "-//W3C//DTD SVG 1.1//EN" "http://www.w3.org/Graphics/SVG/1.1/DTD/svg11.dtd">
<svg version="1.1" id="_x31_0" xmlns="http://www.w3.org/2000/svg" xmlns:xlink="http://www.w3.org/1999/xlink" x="0px" y="0px"
	 viewBox="0 0 512 512" style="enable-background:new 0 0 512 512;" xml:space="preserve">
<style type="text/css">
	.st0{fill:#374149;}
</style>
<g>
	<path class="st0" d="M224.022,147.449c5.305,7.149,10.984,13.902,16.012,19.906l5.578,6.703
		c15.301,18.613,14.828,48.191-1.496,93.066c-0.316,0.867-0.094,1.347,0.172,1.726c0.55,0.801,1.918,1.59,3.469,1.59
		c1.148,0,2.117-0.386,2.906-1.183c43.621-44.051,51.863-69.898,51.106-83.844c-0.891-16.5-7.895-26.324-13.774-33.125
		c-5.309-7.125-10.954-13.867-15.973-19.855l-5.625-6.762c-15.309-18.617-14.829-48.195,1.488-93.054
		c0.324-0.867,0.078-1.379-0.172-1.742c-0.55-0.797-1.93-1.59-3.484-1.59c-1.133,0-2.11,0.386-2.883,1.187
		c-43.625,44.078-51.875,69.93-51.113,83.856C211.132,130.84,218.128,140.636,224.022,147.449z"/>
	<path class="st0" d="M104.39,195.492c4.418,5.934,9.129,11.55,13.313,16.546l4.679,5.63c12.758,15.5,12.363,40.16-1.238,77.558
		c-0.266,0.718-0.078,1.129,0.141,1.438c0.461,0.664,1.61,1.328,2.898,1.328c0.95,0,1.758-0.328,2.414-0.985
		c36.347-36.726,43.226-58.27,42.594-69.874c-0.754-13.738-6.582-21.938-11.485-27.614c-4.426-5.957-9.152-11.574-13.355-16.582
		l-4.648-5.586c-12.75-15.519-12.356-40.164,1.262-77.582c0.25-0.699,0.054-1.117-0.145-1.41c-0.469-0.664-1.621-1.336-2.91-1.336
		c-0.957,0-1.762,0.336-2.414,0.988c-36.348,36.734-43.223,58.262-42.582,69.871C93.655,181.633,99.483,189.816,104.39,195.492z"/>
	<path class="st0" d="M354.378,195.488c4.282,5.774,8.859,11.23,13.286,16.523l4.706,5.653c12.75,15.511,12.356,40.16-1.238,77.558
		c-0.266,0.722-0.086,1.129,0.137,1.442c0.461,0.664,1.605,1.328,2.898,1.328c0.953,0,1.762-0.328,2.418-0.985
		c36.348-36.726,43.222-58.273,42.59-69.878c-0.75-13.738-6.586-21.934-11.476-27.61c-4.438-5.961-9.164-11.586-13.36-16.586
		l-4.648-5.582c-12.75-15.519-12.355-40.168,1.254-77.586c0.258-0.696,0.058-1.118-0.137-1.406
		c-0.469-0.664-1.625-1.336-2.918-1.336c-0.95,0-1.762,0.336-2.414,0.988c-36.339,36.719-43.214,58.262-42.582,69.867
		C343.636,181.644,349.471,189.816,354.378,195.488z"/>
	<path class="st0" d="M511.502,287.738c-0.363-4.57-1.14-9.926-2.023-13.812c-0.492-1.852-0.977-3.672-1.453-5.461l-0.356-1.336
		l-0.09-0.332c-0.039-0.297,0.027,0.422-0.098-0.703l-0.058-0.188l-0.222-0.734l-0.887-2.898c-1.222-3.808-2.598-7.386-4.117-10.714
		c-2.981-6.672-6.207-12.434-9.539-17.297c-6.578-9.766-12.989-16.141-17.434-20.25c-2.246-2.07-4.051-3.523-5.266-4.476
		c-0.414-0.333-0.668-0.532-0.946-0.754l-0.746-0.774c0,0,0.074,0.18,0.109,0.266c-0.094-0.074-0.254-0.203-0.254-0.203
		s1.254,3.024,3.214,8.535c1.942,5.551,4.566,13.703,6.41,23.902c0.848,5.122,1.578,10.707,1.754,16.699
		c0.098,2.993,0.028,6.082-0.074,9.227l-0.145,2.378l-0.035,0.598l-0.008,0.149c-0.117-1.016-0.042-0.18-0.074-0.367l-0.031,0.344
		l-0.126,1.378c-0.168,1.844-0.34,3.719-0.515,5.625c-0.114,2.039-0.66,3.188-0.922,4.817c-0.339,1.543-0.515,2.949-1.031,4.68
		c-0.438,1.648-0.878,3.32-1.324,5.015c-0.508,1.672-1.16,3.332-1.726,5.008c-2.543,6.648-5.352,13.394-9.59,19.816
		c-8.032,12.954-19.313,25.246-33.512,35.977c-14.066,10.817-30.977,20.031-49.422,27.598
		c-18.586,7.402-38.774,13.102-59.856,16.836c-10.515,1.981-21.32,3.129-32.164,4.184c-5.446,0.441-10.902,0.793-16.398,0.996
		c-2.738,0.152-5.484,0.281-8.242,0.27l-7.542,0.113l-9.278-0.133l-4.527-0.082l-3.856-0.203
		c-5.019-0.192-10.476-0.566-15.961-0.996c-10.843-1.074-21.648-2.227-32.156-4.227c-21.07-3.762-41.254-9.441-59.824-16.867
		c-18.43-7.582-35.336-16.781-49.383-27.598c-14.195-10.71-25.469-22.996-33.492-35.93c-8.09-12.91-12.691-26.621-14.582-39.714
		c-0.199-1.653-0.39-3.278-0.582-4.875l-0.11-0.875l0.031-0.515l-0.172-0.43l-0.015-0.449l-0.098-2.707
		c-0.118-3.027-0.211-5.969-0.106-9.031c0.168-5.988,0.906-11.57,1.754-16.691c1.84-10.199,4.469-18.352,6.402-23.91
		c1.598-4.473,2.664-7.191,3.035-8.113c0.02-0.039,0.058-0.126,0.078-0.153l-0.027,0.02c0.042-0.106,0.121-0.298,0.121-0.298
		s-0.629,0.497-1.844,1.462c-1.226,0.969-3.031,2.426-5.273,4.469c-4.458,4.102-10.875,10.469-17.481,20.222
		c-3.348,4.855-6.582,10.617-9.586,17.289c-1.516,3.254-2.918,6.985-4.157,10.906l-0.843,2.574L4.62,265.64l-0.054,0.164
		c-0.082,0.555-0.047,0.258-0.078,0.43l-0.094,0.374l-0.379,1.504c-0.496,2.035-1.004,4.106-1.519,6.211
		c-3.626,16.945-3.688,37.801,2.406,59.262c3.027,10.699,7.586,21.406,13.266,31.906c5.738,10.48,13.027,20.355,21.117,29.882
		c16.289,19.051,37.031,35.188,60.031,48.387c23.11,12.976,48.594,22.938,75.16,29.343c2.825,0.699,5.703,1.184,8.551,1.798
		c0.683,0.148,1.375,0.293,2.066,0.433c9.863,2.051,19.805,3.774,29.843,4.985c6.786,0.73,13.622,1.473,20.958,1.774l5.402,0.293
		l4.742,0.133l9.278,0.195l11.008-0.214c3.43-0.035,6.859-0.219,10.289-0.438c6.856-0.294,13.695-1.043,20.52-1.774
		c9.98-1.211,19.863-2.922,29.671-4.961c0.844-0.176,1.692-0.356,2.524-0.535c2.75-0.598,5.531-1.062,8.258-1.746
		c26.558-6.422,52.043-16.359,75.133-29.355c22.988-13.203,43.722-29.336,59.996-48.383c8.082-9.523,15.398-19.371,21.106-29.867
		c5.676-10.488,10.254-21.179,13.262-31.874c3.058-10.668,4.558-21.317,4.863-31.301c0.016-2.512,0.102-4.965,0.024-7.387
		C511.811,292.465,511.655,290.086,511.502,287.738z"/>
</g>
</svg>
